<svg width="647" height="220" viewBox="0 0 647 220" fill="none" xmlns="http://www.w3.org/2000/svg">
<path d="M286.749 58.7196V157.864H305.03V120.472L315.234 110.133L347.262 157.864H370.787L329.405 96.6777L367.385 58.7196H344.002L305.03 98.2357V58.7196H286.749Z" fill="white"/>
<path d="M384.391 111.691C386.234 102.91 393.036 97.386 403.381 97.386C413.727 97.386 420.813 102.343 422.372 111.691H384.391ZM404.657 159.28C416.561 159.28 428.607 155.739 436.402 147.383L423.789 136.052C419.537 140.443 413.302 142.992 405.649 142.992C393.036 142.992 385.1 136.194 383.966 126.988H440.936C441.22 124.297 441.362 121.464 441.362 119.339C441.362 94.5533 425.489 81.098 403.665 81.098C381.841 81.098 364.834 97.8109 364.834 120.756C364.834 143.701 381.415 159.28 404.657 159.28Z" fill="white"/>
<path d="M450.432 58.7196V127.271C450.432 147.1 461.202 157.864 481.042 157.864H495.356V140.584H482.46C473.815 140.584 468.855 135.627 468.855 126.988V100.077H495.356V82.5142H468.855V58.7196H450.432Z" fill="white"/>
<path d="M537.446 141.293C525.683 141.293 518.031 132.936 518.031 120.189C518.031 107.442 525.683 99.0857 537.446 99.0857C545.524 99.0857 551.759 103.193 554.735 110.275L572.308 101.777C566.639 89.1713 553.885 81.0981 538.013 81.0981C515.621 81.0981 498.474 97.5277 498.474 120.897C498.474 144.267 514.629 159.28 537.021 159.28C552.893 159.28 565.931 151.066 571.883 138.46L555.019 130.245C551.476 136.902 545.099 141.293 537.446 141.293Z" fill="white"/>
<path d="M628.428 115.94V157.864H646.851V112.682C646.851 93.5617 635.939 81.0979 617.658 81.0979C610.147 81.0979 603.486 83.2224 598.242 86.9049V58.7196H580.103V157.864H598.242V115.94C598.242 105.176 604.194 99.0855 614.398 99.0855C623.326 99.0855 628.428 105.176 628.428 115.94Z" fill="white"/>
<rect width="220" height="220" fill="#9C64FF"/>
<path d="M127.538 58.9653L151.386 35H92.9584L30 98.2666L92.4624 161.035L68.6138 185H127.042L190 121.733L127.538 58.9653ZM92.9584 160.532V93.7183L127.042 59.4682V126.282L92.9584 160.536V160.532Z" fill="white"/>
</svg>
